<?xml version="1.0" encoding="UTF-8" standalone="no"?>
<!DOCTYPE svg PUBLIC "-//W3C//DTD SVG 1.1//EN"
 "http://www.w3.org/Graphics/SVG/1.1/DTD/svg11.dtd">
<!-- Generated by graphviz version 2.43.0 (0)
 -->
<!-- Title: CombinedFlow Pages: 1 -->
<svg width="2310pt" height="346pt"
 viewBox="0.00 0.00 2309.71 346.00" xmlns="http://www.w3.org/2000/svg" xmlns:xlink="http://www.w3.org/1999/xlink">
<g id="graph0" class="graph" transform="scale(1 1) rotate(0) translate(4 342)">
<title>CombinedFlow</title>
<polygon fill="white" stroke="transparent" points="-4,4 -4,-342 2305.71,-342 2305.71,4 -4,4"/>
<g id="clust1" class="cluster">
<title>cluster_game</title>
<polygon fill="none" stroke="blue" points="68.8,-8 68.8,-175 2293.71,-175 2293.71,-8 68.8,-8"/>
<text text-anchor="middle" x="1181.25" y="-161.4" font-family="Arial" font-size="12.00">Steam Game Data Retrieval Flow</text>
</g>
<g id="clust2" class="cluster">
<title>cluster_icon</title>
<polygon fill="none" stroke="green" points="8,-183 8,-330 1743.43,-330 1743.43,-183 8,-183"/>
<text text-anchor="middle" x="875.71" y="-316.4" font-family="Arial" font-size="12.00">Steam Icon / Achievement Icon Retrieval Flow</text>
</g>
<!-- start_g -->
<g id="node1" class="node">
<title>start_g</title>
<ellipse fill="none" stroke="black" cx="103.8" cy="-46" rx="27" ry="18"/>
<text text-anchor="middle" x="103.8" y="-43.2" font-family="Arial" font-size="11.00">Start</text>
</g>
<!-- init_http_g -->
<g id="node2" class="node">
<title>init_http_g</title>
<polygon fill="none" stroke="black" points="368.09,-64 250.09,-64 250.09,-28 368.09,-28 368.09,-64"/>
<text text-anchor="middle" x="309.09" y="-43.2" font-family="Arial" font-size="11.00">Init shared HttpClient</text>
</g>
<!-- start_g&#45;&gt;init_http_g -->
<g id="edge1" class="edge">
<title>start_g&#45;&gt;init_http_g</title>
<path fill="none" stroke="black" d="M130.96,-46C158.31,-46 202.36,-46 239.69,-46"/>
<polygon fill="black" stroke="black" points="240.02,-49.5 250.02,-46 240.02,-42.5 240.02,-49.5"/>
</g>
<!-- resolve_paths_g -->
<g id="node3" class="node">
<title>resolve_paths_g</title>
<polygon fill="none" stroke="black" points="585.59,-64 426.59,-64 426.59,-28 585.59,-28 585.59,-64"/>
<text text-anchor="middle" x="506.09" y="-43.2" font-family="Arial" font-size="11.00">Resolve app base &amp; full paths</text>
</g>
<!-- init_http_g&#45;&gt;resolve_paths_g -->
<g id="edge2" class="edge">
<title>init_http_g&#45;&gt;resolve_paths_g</title>
<path fill="none" stroke="black" d="M368.33,-46C383.48,-46 400.15,-46 416.48,-46"/>
<polygon fill="black" stroke="black" points="416.59,-49.5 426.59,-46 416.59,-42.5 416.59,-49.5"/>
</g>
<!-- steam_path_g -->
<g id="node4" class="node">
<title>steam_path_g</title>
<polygon fill="none" stroke="black" points="788.09,-64 646.09,-64 646.09,-28 788.09,-28 788.09,-64"/>
<text text-anchor="middle" x="717.09" y="-43.2" font-family="Arial" font-size="11.00">Compute steamclient path</text>
</g>
<!-- resolve_paths_g&#45;&gt;steam_path_g -->
<g id="edge3" class="edge">
<title>resolve_paths_g&#45;&gt;steam_path_g</title>
<path fill="none" stroke="black" d="M585.81,-46C602.19,-46 619.48,-46 635.92,-46"/>
<polygon fill="black" stroke="black" points="636.03,-49.5 646.03,-46 636.03,-42.5 636.03,-49.5"/>
</g>
<!-- verify_sig_g -->
<g id="node5" class="node">
<title>verify_sig_g</title>
<polygon fill="none" stroke="black" points="1065.09,-64 951.09,-64 951.09,-28 1065.09,-28 1065.09,-64"/>
<text text-anchor="middle" x="1008.09" y="-43.2" font-family="Arial" font-size="11.00">Verify DLL/signature</text>
</g>
<!-- steam_path_g&#45;&gt;verify_sig_g -->
<g id="edge4" class="edge">
<title>steam_path_g&#45;&gt;verify_sig_g</title>
<path fill="none" stroke="black" d="M788.42,-46C834.86,-46 895.33,-46 940.91,-46"/>
<polygon fill="black" stroke="black" points="940.98,-49.5 950.98,-46 940.98,-42.5 940.98,-49.5"/>
</g>
<!-- cache_check_g -->
<g id="node6" class="node">
<title>cache_check_g</title>
<polygon fill="none" stroke="black" points="1230.65,-64 1111.53,-46 1230.65,-28 1349.77,-46 1230.65,-64"/>
<text text-anchor="middle" x="1230.65" y="-43.2" font-family="Arial" font-size="11.00">games.xml fresh (&lt;30m)?</text>
</g>
<!-- verify_sig_g&#45;&gt;cache_check_g -->
<g id="edge5" class="edge">
<title>verify_sig_g&#45;&gt;cache_check_g</title>
<path fill="none" stroke="black" d="M1065.32,-46C1076.5,-46 1088.66,-46 1101.14,-46"/>
<polygon fill="black" stroke="black" points="1101.21,-49.5 1111.21,-46 1101.21,-42.5 1101.21,-49.5"/>
</g>
<!-- read_cache_g -->
<g id="node7" class="node">
<title>read_cache_g</title>
<polygon fill="none" stroke="black" points="1551.71,-106 1414.71,-106 1414.71,-70 1551.71,-70 1551.71,-106"/>
<text text-anchor="middle" x="1483.21" y="-85.2" font-family="Arial" font-size="11.00">Read/validate games.xml</text>
</g>
<!-- cache_check_g&#45;&gt;read_cache_g -->
<g id="edge6" class="edge">
<title>cache_check_g&#45;&gt;read_cache_g</title>
<path fill="none" stroke="black" d="M1287.88,-55.43C1322.32,-61.2 1366.87,-68.67 1404.64,-75"/>
<polygon fill="black" stroke="black" points="1404.14,-78.46 1414.58,-76.66 1405.3,-71.56 1404.14,-78.46"/>
<text text-anchor="middle" x="1382.21" y="-76" font-family="Arial" font-size="10.00">Yes</text>
</g>
<!-- download_list_g -->
<g id="node8" class="node">
<title>download_list_g</title>
<polygon fill="none" stroke="black" points="1744.71,-52 1616.71,-52 1616.71,-16 1744.71,-16 1744.71,-52"/>
<text text-anchor="middle" x="1680.71" y="-31.2" font-family="Arial" font-size="11.00">Download full game list</text>
</g>
<!-- cache_check_g&#45;&gt;download_list_g -->
<g id="edge7" class="edge">
<title>cache_check_g&#45;&gt;download_list_g</title>
<path fill="none" stroke="black" d="M1332.2,-43.31C1415.37,-41.08 1531.55,-37.97 1606.22,-35.97"/>
<polygon fill="black" stroke="black" points="1606.57,-39.46 1616.47,-35.69 1606.38,-32.46 1606.57,-39.46"/>
<text text-anchor="middle" x="1483.21" y="-43" font-family="Arial" font-size="10.00">No</text>
</g>
<!-- read_cache_g&#45;&gt;download_list_g -->
<g id="edge9" class="edge">
<title>read_cache_g&#45;&gt;download_list_g</title>
<path fill="none" stroke="black" d="M1549.58,-69.94C1567.92,-64.88 1587.97,-59.34 1606.72,-54.16"/>
<polygon fill="black" stroke="black" points="1607.68,-57.53 1616.39,-51.49 1605.82,-50.78 1607.68,-57.53"/>
<text text-anchor="middle" x="1584.21" y="-67" font-family="Arial" font-size="10.00">Invalid</text>
</g>
<!-- produce_list_g -->
<g id="node14" class="node">
<title>produce_list_g</title>
<ellipse fill="none" stroke="black" cx="1680.71" cy="-88" rx="48.92" ry="18"/>
<text text-anchor="middle" x="1680.71" y="-85.2" font-family="Arial" font-size="11.00">Games ready</text>
</g>
<!-- read_cache_g&#45;&gt;produce_list_g -->
<g id="edge8" class="edge">
<title>read_cache_g&#45;&gt;produce_list_g</title>
<path fill="none" stroke="black" d="M1551.76,-88C1574.53,-88 1599.73,-88 1621.7,-88"/>
<polygon fill="black" stroke="black" points="1621.87,-91.5 1631.87,-88 1621.87,-84.5 1621.87,-91.5"/>
</g>
<!-- validate_download_g -->
<g id="node9" class="node">
<title>validate_download_g</title>
<polygon fill="none" stroke="black" points="1898.71,-72 1781.71,-72 1781.71,-36 1898.71,-36 1898.71,-72"/>
<text text-anchor="middle" x="1840.21" y="-51.2" font-family="Arial" font-size="11.00">Validate size/schema</text>
</g>
<!-- download_list_g&#45;&gt;validate_download_g -->
<g id="edge10" class="edge">
<title>download_list_g&#45;&gt;validate_download_g</title>
<path fill="none" stroke="black" d="M1744.86,-42.02C1753.69,-43.14 1762.79,-44.3 1771.7,-45.43"/>
<polygon fill="black" stroke="black" points="1771.29,-48.9 1781.65,-46.69 1772.17,-41.96 1771.29,-48.9"/>
</g>
<!-- backup_old_g -->
<g id="node10" class="node">
<title>backup_old_g</title>
<polygon fill="none" stroke="black" points="2128.71,-72 1982.71,-72 1982.71,-36 2128.71,-36 2128.71,-72"/>
<text text-anchor="middle" x="2055.71" y="-51.2" font-family="Arial" font-size="11.00">Backup existing games.xml</text>
</g>
<!-- validate_download_g&#45;&gt;backup_old_g -->
<g id="edge11" class="edge">
<title>validate_download_g&#45;&gt;backup_old_g</title>
<path fill="none" stroke="black" d="M1898.98,-54C1921.56,-54 1947.87,-54 1972.36,-54"/>
<polygon fill="black" stroke="black" points="1972.37,-57.5 1982.37,-54 1972.37,-50.5 1972.37,-57.5"/>
<text text-anchor="middle" x="1940.71" y="-57" font-family="Arial" font-size="10.00">OK</text>
</g>
<!-- fallback_cache_g -->
<g id="node12" class="node">
<title>fallback_cache_g</title>
<polygon fill="none" stroke="black" points="2118.21,-146 1993.21,-146 1993.21,-110 2118.21,-110 2118.21,-146"/>
<text text-anchor="middle" x="2055.71" y="-125.2" font-family="Arial" font-size="11.00">Fallback to local cache</text>
</g>
<!-- validate_download_g&#45;&gt;fallback_cache_g -->
<g id="edge12" class="edge">
<title>validate_download_g&#45;&gt;fallback_cache_g</title>
<path fill="none" stroke="black" d="M1893.16,-72.01C1923.25,-82.44 1961.31,-95.63 1992.93,-106.59"/>
<polygon fill="black" stroke="black" points="1991.93,-109.94 2002.52,-109.91 1994.22,-103.33 1991.93,-109.94"/>
<text text-anchor="middle" x="1940.71" y="-98" font-family="Arial" font-size="10.00">Fail/Invalid</text>
</g>
<!-- write_new_g -->
<g id="node11" class="node">
<title>write_new_g</title>
<polygon fill="none" stroke="black" points="2285.71,-82 2165.71,-82 2165.71,-46 2285.71,-46 2285.71,-82"/>
<text text-anchor="middle" x="2225.71" y="-61.2" font-family="Arial" font-size="11.00">Write new games.xml</text>
</g>
<!-- backup_old_g&#45;&gt;write_new_g -->
<g id="edge15" class="edge">
<title>backup_old_g&#45;&gt;write_new_g</title>
<path fill="none" stroke="black" d="M2128.93,-58.3C2137.75,-58.82 2146.75,-59.36 2155.52,-59.88"/>
<polygon fill="black" stroke="black" points="2155.51,-63.39 2165.7,-60.49 2155.92,-56.4 2155.51,-63.39"/>
</g>
<!-- write_new_g&#45;&gt;read_cache_g -->
<g id="edge16" class="edge">
<title>write_new_g&#45;&gt;read_cache_g</title>
<path fill="none" stroke="black" d="M2165.62,-74.84C2153.43,-76.97 2140.66,-79.12 2128.71,-81 2064.01,-91.16 2045.28,-81.65 1982.71,-101 1974.16,-103.64 1973.39,-107.85 1964.71,-110 1869.78,-133.55 1842.5,-113.89 1744.71,-115 1687.82,-115.65 1673.31,-120.71 1616.71,-115 1598.77,-113.19 1579.68,-110.04 1561.73,-106.51"/>
<polygon fill="black" stroke="black" points="1562.39,-103.07 1551.89,-104.52 1561,-109.93 1562.39,-103.07"/>
</g>
<!-- fallback_cache_g&#45;&gt;read_cache_g -->
<g id="edge13" class="edge">
<title>fallback_cache_g&#45;&gt;read_cache_g</title>
<path fill="none" stroke="black" d="M1992.83,-137.25C1899.64,-149.17 1718.36,-164.54 1569.71,-130 1553.19,-126.16 1536.19,-118.66 1521.74,-111.05"/>
<polygon fill="black" stroke="black" points="1523.09,-107.8 1512.64,-106.06 1519.73,-113.94 1523.09,-107.8"/>
</g>
<!-- error_out_g -->
<g id="node13" class="node">
<title>error_out_g</title>
<ellipse fill="none" stroke="black" cx="2225.71" cy="-128" rx="27" ry="18"/>
<text text-anchor="middle" x="2225.71" y="-125.2" font-family="Arial" font-size="11.00">Error</text>
</g>
<!-- fallback_cache_g&#45;&gt;error_out_g -->
<g id="edge14" class="edge">
<title>fallback_cache_g&#45;&gt;error_out_g</title>
<path fill="none" stroke="black" d="M2118.31,-128C2141.92,-128 2168.07,-128 2188.53,-128"/>
<polygon fill="black" stroke="black" points="2188.68,-131.5 2198.68,-128 2188.68,-124.5 2188.68,-131.5"/>
</g>
<!-- start_i -->
<g id="node15" class="node">
<title>start_i</title>
<ellipse fill="none" stroke="black" cx="103.8" cy="-227" rx="87.59" ry="18"/>
<text text-anchor="middle" x="103.8" y="-224.2" font-family="Arial" font-size="11.00">Start (AppID/Achievement)</text>
</g>
<!-- compute_cache_i -->
<g id="node16" class="node">
<title>compute_cache_i</title>
<polygon fill="none" stroke="black" points="389.59,-245 228.59,-245 228.59,-209 389.59,-209 389.59,-245"/>
<text text-anchor="middle" x="309.09" y="-224.2" font-family="Arial" font-size="11.00">Compute sanitized cache path</text>
</g>
<!-- start_i&#45;&gt;compute_cache_i -->
<g id="edge17" class="edge">
<title>start_i&#45;&gt;compute_cache_i</title>
<path fill="none" stroke="black" d="M191.6,-227C200.37,-227 209.28,-227 218.08,-227"/>
<polygon fill="black" stroke="black" points="218.34,-230.5 228.34,-227 218.34,-223.5 218.34,-230.5"/>
</g>
<!-- check_cached_i -->
<g id="node17" class="node">
<title>check_cached_i</title>
<polygon fill="none" stroke="black" points="506.09,-245 438.02,-227 506.09,-209 574.16,-227 506.09,-245"/>
<text text-anchor="middle" x="506.09" y="-224.2" font-family="Arial" font-size="11.00">Icon cached?</text>
</g>
<!-- compute_cache_i&#45;&gt;check_cached_i -->
<g id="edge18" class="edge">
<title>compute_cache_i&#45;&gt;check_cached_i</title>
<path fill="none" stroke="black" d="M389.69,-227C402.19,-227 415.1,-227 427.56,-227"/>
<polygon fill="black" stroke="black" points="427.9,-230.5 437.9,-227 427.9,-223.5 427.9,-230.5"/>
</g>
<!-- return_cached_i -->
<g id="node18" class="node">
<title>return_cached_i</title>
<polygon fill="none" stroke="black" points="923.59,-227 813.59,-227 813.59,-191 923.59,-191 923.59,-227"/>
<text text-anchor="middle" x="868.59" y="-206.2" font-family="Arial" font-size="11.00">Return cached icon</text>
</g>
<!-- check_cached_i&#45;&gt;return_cached_i -->
<g id="edge19" class="edge">
<title>check_cached_i&#45;&gt;return_cached_i</title>
<path fill="none" stroke="black" d="M558.91,-222.95C573.36,-221.9 589.08,-220.83 603.59,-220 671.79,-216.11 749.97,-213.02 803.44,-211.12"/>
<polygon fill="black" stroke="black" points="803.6,-214.62 813.47,-210.77 803.35,-207.62 803.6,-214.62"/>
<text text-anchor="middle" x="612.09" y="-223" font-family="Arial" font-size="10.00">Yes</text>
</g>
<!-- build_url_i -->
<g id="node19" class="node">
<title>build_url_i</title>
<polygon fill="none" stroke="black" points="795.59,-264 638.59,-264 638.59,-228 795.59,-228 795.59,-264"/>
<text text-anchor="middle" x="717.09" y="-243.2" font-family="Arial" font-size="11.00">Build URL (Steam CDN/API)</text>
</g>
<!-- check_cached_i&#45;&gt;build_url_i -->
<g id="edge20" class="edge">
<title>check_cached_i&#45;&gt;build_url_i</title>
<path fill="none" stroke="black" d="M557.15,-231.55C578.39,-233.48 603.79,-235.79 627.99,-237.99"/>
<polygon fill="black" stroke="black" points="628,-241.51 638.27,-238.93 628.63,-234.53 628,-241.51"/>
<text text-anchor="middle" x="612.09" y="-240" font-family="Arial" font-size="10.00">No</text>
</g>
<!-- done_i -->
<g id="node24" class="node">
<title>done_i</title>
<ellipse fill="none" stroke="black" cx="1680.71" cy="-229" rx="54.94" ry="18"/>
<text text-anchor="middle" x="1680.71" y="-226.2" font-family="Arial" font-size="11.00">Icon path ready</text>
</g>
<!-- return_cached_i&#45;&gt;done_i -->
<g id="edge21" class="edge">
<title>return_cached_i&#45;&gt;done_i</title>
<path fill="none" stroke="black" d="M924.03,-202.52C969.13,-197.72 1034.93,-192 1092.59,-192 1092.59,-192 1092.59,-192 1484.21,-192 1534.42,-192 1590.63,-203.93 1629.85,-214.24"/>
<polygon fill="black" stroke="black" points="1629.12,-217.67 1639.69,-216.88 1630.94,-210.91 1629.12,-217.67"/>
</g>
<!-- dl_icon_i -->
<g id="node20" class="node">
<title>dl_icon_i</title>
<polygon fill="none" stroke="black" points="1074.59,-264 941.59,-264 941.59,-228 1074.59,-228 1074.59,-264"/>
<text text-anchor="middle" x="1008.09" y="-243.2" font-family="Arial" font-size="11.00">Download via HttpClient</text>
</g>
<!-- build_url_i&#45;&gt;dl_icon_i -->
<g id="edge22" class="edge">
<title>build_url_i&#45;&gt;dl_icon_i</title>
<path fill="none" stroke="black" d="M795.92,-246C837.93,-246 889.57,-246 931.26,-246"/>
<polygon fill="black" stroke="black" points="931.37,-249.5 941.37,-246 931.37,-242.5 931.37,-249.5"/>
</g>
<!-- validate_icon_i -->
<g id="node21" class="node">
<title>validate_icon_i</title>
<polygon fill="none" stroke="black" points="1285.65,-264 1175.65,-264 1175.65,-228 1285.65,-228 1285.65,-264"/>
<text text-anchor="middle" x="1230.65" y="-243.2" font-family="Arial" font-size="11.00">Validate size/format</text>
</g>
<!-- dl_icon_i&#45;&gt;validate_icon_i -->
<g id="edge23" class="edge">
<title>dl_icon_i&#45;&gt;validate_icon_i</title>
<path fill="none" stroke="black" d="M1074.67,-246C1103.28,-246 1136.73,-246 1165.21,-246"/>
<polygon fill="black" stroke="black" points="1165.46,-249.5 1175.46,-246 1165.46,-242.5 1165.46,-249.5"/>
</g>
<!-- save_icon_i -->
<g id="node22" class="node">
<title>save_icon_i</title>
<polygon fill="none" stroke="black" points="1525.71,-247 1440.71,-247 1440.71,-211 1525.71,-211 1525.71,-247"/>
<text text-anchor="middle" x="1483.21" y="-226.2" font-family="Arial" font-size="11.00">Save to cache</text>
</g>
<!-- validate_icon_i&#45;&gt;save_icon_i -->
<g id="edge24" class="edge">
<title>validate_icon_i&#45;&gt;save_icon_i</title>
<path fill="none" stroke="black" d="M1285.71,-242.33C1328.64,-239.42 1388.27,-235.37 1430.56,-232.5"/>
<polygon fill="black" stroke="black" points="1430.9,-235.99 1440.64,-231.82 1430.43,-229.01 1430.9,-235.99"/>
<text text-anchor="middle" x="1382.21" y="-239" font-family="Arial" font-size="10.00">OK</text>
</g>
<!-- placeholder_i -->
<g id="node23" class="node">
<title>placeholder_i</title>
<polygon fill="none" stroke="black" points="1537.21,-301 1429.21,-301 1429.21,-265 1537.21,-265 1537.21,-301"/>
<text text-anchor="middle" x="1483.21" y="-280.2" font-family="Arial" font-size="11.00">Return placeholder</text>
</g>
<!-- validate_icon_i&#45;&gt;placeholder_i -->
<g id="edge25" class="edge">
<title>validate_icon_i&#45;&gt;placeholder_i</title>
<path fill="none" stroke="black" d="M1285.71,-253.98C1324.92,-259.77 1378.06,-267.62 1419.19,-273.69"/>
<polygon fill="black" stroke="black" points="1418.7,-277.16 1429.11,-275.16 1419.73,-270.24 1418.7,-277.16"/>
<text text-anchor="middle" x="1382.21" y="-272" font-family="Arial" font-size="10.00">Invalid</text>
</g>
<!-- save_icon_i&#45;&gt;done_i -->
<g id="edge26" class="edge">
<title>save_icon_i&#45;&gt;done_i</title>
<path fill="none" stroke="black" d="M1526.15,-229C1552.24,-229 1586.32,-229 1615.74,-229"/>
<polygon fill="black" stroke="black" points="1615.93,-232.5 1625.93,-229 1615.93,-225.5 1615.93,-232.5"/>
</g>
<!-- placeholder_i&#45;&gt;done_i -->
<g id="edge27" class="edge">
<title>placeholder_i&#45;&gt;done_i</title>
<path fill="none" stroke="black" d="M1537.37,-268.32C1565.67,-260.5 1600.31,-250.93 1628.33,-243.19"/>
<polygon fill="black" stroke="black" points="1629.63,-246.46 1638.33,-240.43 1627.76,-239.72 1629.63,-246.46"/>
</g>
</g>
</svg>
